<svg id="visual" viewBox="0 0 1920 1080" width="1920" height="1080" xmlns="http://www.w3.org/2000/svg" xmlns:xlink="http://www.w3.org/1999/xlink" version="1.1"><rect x="0" y="0" width="1920" height="1080" fill="#FFFFFF"></rect><path d="M0 618L45.7 600.5C91.3 583 182.7 548 274.2 534.8C365.7 521.7 457.3 530.3 548.8 568C640.3 605.7 731.7 672.3 823 645.3C914.3 618.3 1005.7 497.7 1097 485.8C1188.3 474 1279.7 571 1371.2 573.2C1462.7 575.3 1554.3 482.7 1645.8 438C1737.3 393.3 1828.7 396.7 1874.3 398.3L1920 400L1920 1081L1874.3 1081C1828.7 1081 1737.3 1081 1645.8 1081C1554.3 1081 1462.7 1081 1371.2 1081C1279.7 1081 1188.3 1081 1097 1081C1005.7 1081 914.3 1081 823 1081C731.7 1081 640.3 1081 548.8 1081C457.3 1081 365.7 1081 274.2 1081C182.7 1081 91.3 1081 45.7 1081L0 1081Z" fill="#fdd83e" stroke-linecap="round" stroke-linejoin="miter"></path></svg>