<svg id="visual" viewBox="0 0 1920 1080" width="1920" height="1080" xmlns="http://www.w3.org/2000/svg" xmlns:xlink="http://www.w3.org/1999/xlink" version="1.1"><rect x="0" y="0" width="1920" height="1080" fill="#FFFFFF"></rect><path d="M0 357L45.7 374.2C91.3 391.3 182.7 425.7 274.2 447.8C365.7 470 457.3 480 548.8 467.8C640.3 455.7 731.7 421.3 823 397.8C914.3 374.3 1005.7 361.7 1097 386.8C1188.3 412 1279.7 475 1371.2 495.5C1462.7 516 1554.3 494 1645.8 502.7C1737.3 511.3 1828.7 550.7 1874.3 570.3L1920 590L1920 1081L1874.3 1081C1828.7 1081 1737.3 1081 1645.8 1081C1554.3 1081 1462.7 1081 1371.2 1081C1279.7 1081 1188.3 1081 1097 1081C1005.7 1081 914.3 1081 823 1081C731.7 1081 640.3 1081 548.8 1081C457.3 1081 365.7 1081 274.2 1081C182.7 1081 91.3 1081 45.7 1081L0 1081Z" fill="#fdd83e" stroke-linecap="round" stroke-linejoin="miter"></path></svg>